<svg xmlns="http://www.w3.org/2000/svg" width="28" height="28" viewBox="0 0 28 28" fill="none">
  <path d="M10.8745 22C10.8745 21.9479 10.871 21.8958 10.871 21.8433C10.871 18.3612 10.871 14.8789 10.871 11.3963V11.2161H13.9987V12.2346H15.0395V11.2161H19.9132V12.2381H20.9603V13.3013H22.0094V21.998H18.5378C18.5354 21.9303 18.5307 21.8629 18.5307 21.7951C18.5307 19.7319 18.5307 17.668 18.5307 15.6032V15.3811H17.4781V14.3496H15.3901V15.3877H14.3485V15.5891C14.3485 17.7259 14.3478 19.8629 14.3465 22H10.8745Z" fill="current"/>
  <path d="M6.33899 22L6.34134 15.2902V11.2161H9.81493C9.81767 11.2713 9.82277 11.3265 9.82277 11.3814C9.82277 14.8692 9.82277 18.3569 9.82277 21.8445C9.82277 21.8962 9.81493 21.9479 9.81101 22.0012L6.33899 22Z" fill="current"/>
  <path d="M6 9.11986V7.02991H7.03146V5.99414H9.12063V7.01659H10.1591V9.11634H9.12964V10.1517H7.04165V9.11986H6Z" fill="current"/>
  <rect y="3" width="3" height="22" fill="current"/>
  <rect x="3" width="22" height="3" fill="current"/>
  <rect x="3" y="25" width="22" height="3" fill="current"/>
  <rect x="25" y="3" width="3" height="22" fill="current"/>
</svg>