<svg width="18" height="18" viewBox="0 0 18 18" fill="none" xmlns="http://www.w3.org/2000/svg">
<g id="Icon tab">
<rect id="Rectangle 13879" x="12" y="4" width="2" height="2" fill="#D9D9D9"/>
<rect id="Rectangle 13912" x="14" y="2" width="2" height="2" fill="#D9D9D9"/>
<rect id="Rectangle 13888" x="10" y="6" width="2" height="2" fill="#D9D9D9"/>
<rect id="Rectangle 13889" x="8" y="8" width="2" height="2" fill="#D9D9D9"/>
<rect id="Rectangle 13881" x="16" width="2" height="2" fill="#D9D9D9"/>
<rect id="Rectangle 13885" x="16" y="2" width="2" height="2" fill="#D9D9D9"/>
<rect id="Rectangle 13886" x="16" y="4" width="2" height="2" fill="#D9D9D9"/>
<rect id="Rectangle 13887" x="16" y="6" width="2" height="2" fill="#D9D9D9"/>
<rect id="Rectangle 13882" x="14" width="2" height="2" fill="#D9D9D9"/>
<rect id="Rectangle 13883" x="12" width="2" height="2" fill="#D9D9D9"/>
<rect id="Rectangle 13884" x="10" width="2" height="2" fill="#D9D9D9"/>
<rect id="Rectangle 13891" x="4" width="2" height="2" fill="#D9D9D9"/>
<rect id="Rectangle 13892" x="2" width="2" height="2" fill="#D9D9D9"/>
<rect id="Rectangle 13893" width="2" height="2" fill="#D9D9D9"/>
<rect id="Rectangle 13894" y="2" width="2" height="2" fill="#D9D9D9"/>
<rect id="Rectangle 13895" y="4" width="2" height="2" fill="#D9D9D9"/>
<rect id="Rectangle 13896" y="6" width="2" height="2" fill="#D9D9D9"/>
<rect id="Rectangle 13897" y="8" width="2" height="2" fill="#D9D9D9"/>
<rect id="Rectangle 13898" y="10" width="2" height="2" fill="#D9D9D9"/>
<rect id="Rectangle 13899" y="12" width="2" height="2" fill="#D9D9D9"/>
<rect id="Rectangle 13900" y="14" width="2" height="2" fill="#D9D9D9"/>
<rect id="Rectangle 13901" y="16" width="2" height="2" fill="#D9D9D9"/>
<rect id="Rectangle 13902" x="2" y="16" width="2" height="2" fill="#D9D9D9"/>
<rect id="Rectangle 13903" x="4" y="16" width="2" height="2" fill="#D9D9D9"/>
<rect id="Rectangle 13904" x="6" y="16" width="2" height="2" fill="#D9D9D9"/>
<rect id="Rectangle 13905" x="8" y="16" width="2" height="2" fill="#D9D9D9"/>
<rect id="Rectangle 13906" x="10" y="16" width="2" height="2" fill="#D9D9D9"/>
<rect id="Rectangle 13907" x="12" y="16" width="2" height="2" fill="#D9D9D9"/>
<rect id="Rectangle 13908" x="14" y="16" width="2" height="2" fill="#D9D9D9"/>
<rect id="Rectangle 13909" x="16" y="16" width="2" height="2" fill="#D9D9D9"/>
<rect id="Rectangle 13910" x="16" y="14" width="2" height="2" fill="#D9D9D9"/>
<rect id="Rectangle 13911" x="16" y="12" width="2" height="2" fill="#D9D9D9"/>
</g>
</svg>
