<svg width="52" height="52" viewBox="0 0 52 52" fill="none" xmlns="http://www.w3.org/2000/svg">
<g id="Cursor hover">
<rect id="Rectangle 13913" x="24" y="4" width="4" height="19" fill="#D7D5CD"/>
<rect id="Rectangle 13914" x="24" y="29" width="4" height="19" fill="#D7D5CD"/>
<rect id="Rectangle 13915" x="4" y="28" width="4" height="19" transform="rotate(-90 4 28)" fill="#D7D5CD"/>
<rect id="Rectangle 13916" x="29" y="28" width="4" height="19" transform="rotate(-90 29 28)" fill="#D7D5CD"/>
<rect id="Rectangle 13917" width="4" height="4" fill="#FEC904"/>
<rect id="Rectangle 13922" x="52" width="4" height="4" transform="rotate(90 52 0)" fill="#FEC904"/>
<rect id="Rectangle 13920" y="4" width="4" height="4" fill="#FEC904"/>
<rect id="Rectangle 13923" x="48" width="4" height="4" transform="rotate(90 48 0)" fill="#FEC904"/>
<rect id="Rectangle 13921" y="8" width="4" height="4" fill="#FEC904"/>
<rect id="Rectangle 13924" x="44" width="4" height="4" transform="rotate(90 44 0)" fill="#FEC904"/>
<rect id="Rectangle 13918" x="4" width="4" height="4" fill="#FEC904"/>
<rect id="Rectangle 13925" x="52" y="4" width="4" height="4" transform="rotate(90 52 4)" fill="#FEC904"/>
<rect id="Rectangle 13919" x="8" width="4" height="4" fill="#FEC904"/>
<rect id="Rectangle 13927" x="52" y="52" width="4" height="4" transform="rotate(-180 52 52)" fill="#FEC904"/>
<rect id="Rectangle 13928" y="52" width="4" height="4" transform="rotate(-90 0 52)" fill="#FEC904"/>
<rect id="Rectangle 13929" x="52" y="48" width="4" height="4" transform="rotate(-180 52 48)" fill="#FEC904"/>
<rect id="Rectangle 13930" x="4" y="52" width="4" height="4" transform="rotate(-90 4 52)" fill="#FEC904"/>
<rect id="Rectangle 13931" x="52" y="44" width="4" height="4" transform="rotate(-180 52 44)" fill="#FEC904"/>
<rect id="Rectangle 13932" x="8" y="52" width="4" height="4" transform="rotate(-90 8 52)" fill="#FEC904"/>
<rect id="Rectangle 13933" x="48" y="52" width="4" height="4" transform="rotate(-180 48 52)" fill="#FEC904"/>
<rect id="Rectangle 13934" y="48" width="4" height="4" transform="rotate(-90 0 48)" fill="#FEC904"/>
<rect id="Rectangle 13936" y="44" width="4" height="4" transform="rotate(-90 0 44)" fill="#FEC904"/>
<rect id="Rectangle 13935" x="44" y="52" width="4" height="4" transform="rotate(-180 44 52)" fill="#FEC904"/>
<rect id="Rectangle 13926" x="52" y="8" width="4" height="4" transform="rotate(90 52 8)" fill="#FEC904"/>
</g>
</svg>
